{"title":"Identity Thief 2013 720p HDRip XviD AC3-SmY","uid":8206426,"size":2480933283,"categoryP":"video","categoryS":"hd___movies","magnet":"?xt=urn:btih:615dc1fba1c791536e2280e6a20cdea8041a1b8b&amp;dn=Identity+Thief+2013+720p+HDRip+XviD+AC3-SmY&amp;tr=udp%3A%2F%2Ftracker.openbittorrent.com%3A80&amp;tr=udp%3A%2F%2Fopen.demonii.com%3A1337&amp;tr=udp%3A%2F%2Ftracker.coppersurfer.tk%3A6969&amp;tr=udp%3A%2F%2Fexodus.desync.com%3A6969","seeders":13,"leechers":1,"uploader":"HeroMaster","files":-1,"time":1362096986,"description":"Identity Thief 2013 720p HDRip XviD AC3-SmY\n\n\nRelease Info:\n\n\nTitle: Identity Thief \nYear: 2013 \nLanguage: English \nSubtitles: Chinese \nFile format: XVID + AC3 \nVideo size: 1280 x 540 \nFile size: 1CD 2.31GB \nLength 01:51:23 (h: m: s) \nSource: SmY (P2P)\n\n\nIMDB Info:\n\n\nName: Identity Thief \nGenre: Comedy / Crime \nIMDB Link: http://www.imdb.com/title/tt2024432/\nIMDB Rating: 5.8/10 from 5,983 users\nDirector: Seth Gordon\nWriters: Craig Mazin (screenplay), Jerry Eeten (story)\nCast: Jason Bateman, Melissa McCarthy, John Cho\nPlot: Mild-mannered businessman Sandy Patterson travels from Denver to \nMiami to confront the deceptively harmless-looking woman who has been \nliving it up after stealing Sandy's identity.\n\n\nMore Info:\n\n\nFormat: AVI \nFormat / Info: Audio Video Interleave \nFormat profile: OpenDML \nFormat settings: rec \nFile size: 2.31 GiB \nDuration: 1h 51mn \nOverall bit rate: 2 968 Kbps \nWriting application: AVI-Mux GUI 1.17.8, Aug 30 2008 12:36:58 \n\nVideo # 0 \nID: 0 \nFormat: MPEG-4 Visual \nFormat profile: Advanced Simple @ L5 \nFormat settings, BVOP: 2 \nFormat settings, QPel: No \nFormat settings, GMC: No warppoints \nFormat settings, Matrix: Default (MPEG) \nCodec ID: XVID \nCodec ID / Hint: XviD \nDuration: 1h 51mn \nBit rate: 2 770 Kbps \nWidth: 1 280 pixels \nHeight: 540 pixels \nDisplay aspect ratio: 2.35:1 \nFrame rate: 25.000 fps \nColor space: YUV \nChroma subsampling: 4:2:0 \nBit depth: 8 bits \nScan type: Progressive \nCompression mode: Lossy \nBits / (Pixel * Frame): 0.160 \nStream size: 2.16 GiB (93%) \nWriting library: XviD 1.2.1 (UTC 2008-12-04) \n\nAudio # 1 \nID: 1 \nFormat: AC-3 \nFormat / Info: Audio Coding 3 \nMode extension: CM (complete main) \nCodec ID: 2000 \nDuration: 1h 51mn \nBit rate mode: Constant \nBit rate: 192 Kbps \nChannel (s): 2 channels \nChannel positions: Front: LR \nSampling rate: 48.0 KHz \nBit depth: 16 bits \nCompression mode: Lossy \nStream size: 153 MiB (6%) \nAlignment: Aligned on interleaves \nInterleave, duration: 64 ms (1.60 video frames) \nInterleave, preload duration: 192 ms \nTitle: yapian\n\n\nPoster:\n\n &lt;a href=&quot;\nhttp://i.imgur.com/Fy53fcS.jpg&quot; rel=&quot;nofollow&quot; target=&quot;_NEW&quot;&gt;\nhttp://i.imgur.com/Fy53fcS.jpg&lt;/a&gt;\n\n\nScreenshots:\n\n &lt;a href=&quot;\nhttp://i.imgur.com/3B3uoIN.jpg&quot; rel=&quot;nofollow&quot; target=&quot;_NEW&quot;&gt;\nhttp://i.imgur.com/3B3uoIN.jpg&lt;/a&gt;\n\n &lt;a href=&quot;\nhttp://i.imgur.com/S5hJFrA.jpg&quot; rel=&quot;nofollow&quot; target=&quot;_NEW&quot;&gt;\nhttp://i.imgur.com/S5hJFrA.jpg&lt;/a&gt;\n\n &lt;a href=&quot;\nhttp://i.imgur.com/ROFSrfH.jpg&quot; rel=&quot;nofollow&quot; target=&quot;_NEW&quot;&gt;\nhttp://i.imgur.com/ROFSrfH.jpg&lt;/a&gt;\n\n\nSEED AND ENJOY!","torrent":{"xt":"urn:btih:615dc1fba1c791536e2280e6a20cdea8041a1b8b","amp;dn":"Identity+Thief+2013+720p+HDRip+XviD+AC3-SmY","amp;tr":["udp%3A%2F%2Ftracker.openbittorrent.com%3A80","udp%3A%2F%2Fopen.demonii.com%3A1337","udp%3A%2F%2Ftracker.coppersurfer.tk%3A6969","udp%3A%2F%2Fexodus.desync.com%3A6969"],"infoHash":"615dc1fba1c791536e2280e6a20cdea8041a1b8b","infoHashBuffer":{"type":"Buffer","data":[97,93,193,251,161,199,145,83,110,34,128,230,162,12,222,168,4,26,27,139]},"announce":[],"urlList":[]}}